<svg xmlns="http://www.w3.org/2000/svg" width="1280" height="520" viewBox="0 0 1280 520" role="img" aria-labelledby="title desc">
  <title id="title">tinychain hero banner</title>
  <desc id="desc">A lightweight Go agent toolkit diagram with client, agent, and MCP modules.</desc>
  <defs>
    <linearGradient id="bg" x1="0" y1="0" x2="1" y2="1">
      <stop offset="0" stop-color="#071214"/>
      <stop offset="0.55" stop-color="#10191c"/>
      <stop offset="1" stop-color="#1c160c"/>
    </linearGradient>
    <linearGradient id="wire" x1="0" y1="0" x2="1" y2="0">
      <stop offset="0" stop-color="#9dd9d2"/>
      <stop offset="0.55" stop-color="#ffd300"/>
      <stop offset="1" stop-color="#d9b44a"/>
    </linearGradient>
    <filter id="glow" x="-20%" y="-20%" width="140%" height="140%">
      <feGaussianBlur stdDeviation="4" result="blur"/>
      <feMerge>
        <feMergeNode in="blur"/>
        <feMergeNode in="SourceGraphic"/>
      </feMerge>
    </filter>
    <pattern id="grid" width="28" height="28" patternUnits="userSpaceOnUse">
      <path d="M28 0H0v28" fill="none" stroke="#9dd9d2" stroke-opacity="0.07"/>
    </pattern>
  </defs>
  <rect width="1280" height="520" fill="url(#bg)"/>
  <rect width="1280" height="520" fill="url(#grid)"/>
  <g font-family="Consolas, 'Courier New', monospace">
    <text x="70" y="105" font-size="82" font-weight="900" fill="#081113" stroke="#d9b44a" stroke-width="3">tinychain</text>
    <text x="66" y="100" font-size="82" font-weight="900" fill="#ffd300" filter="url(#glow)">tinychain</text>
    <text x="74" y="142" font-size="24" fill="#9dd9d2" font-weight="700">small Go modules for agents, tools, models, and MCP</text>
  </g>
  <g transform="translate(95 210)" font-family="Consolas, 'Courier New', monospace">
    <path d="M275 80 C370 18, 470 18, 565 80" fill="none" stroke="url(#wire)" stroke-width="6" stroke-linecap="round" filter="url(#glow)"/>
    <path d="M705 80 C800 18, 900 18, 995 80" fill="none" stroke="url(#wire)" stroke-width="6" stroke-linecap="round" filter="url(#glow)"/>
    <rect x="0" y="0" width="310" height="170" rx="22" fill="#081113" stroke="#2e7d78" stroke-width="4"/>
    <rect x="435" y="0" width="310" height="170" rx="22" fill="#081113" stroke="#d9b44a" stroke-width="4"/>
    <rect x="870" y="0" width="310" height="170" rx="22" fill="#081113" stroke="#9dd9d2" stroke-width="4"/>
    <text x="30" y="48" fill="#9dd9d2" font-size="30" font-weight="800">client</text>
    <text x="465" y="48" fill="#ffd300" font-size="30" font-weight="800">agent</text>
    <text x="900" y="48" fill="#9dd9d2" font-size="30" font-weight="800">mcp</text>
    <text x="30" y="88" fill="#e8f1f2" font-size="19">LangChain-shaped data</text>
    <text x="30" y="118" fill="#e8f1f2" font-size="19">OpenAI + Anthropic models</text>
    <text x="30" y="148" fill="#e8f1f2" font-size="19">callbacks and tool schemas</text>
    <text x="465" y="88" fill="#e8f1f2" font-size="19">model/tool loop</text>
    <text x="465" y="118" fill="#e8f1f2" font-size="19">skills, memory, todos</text>
    <text x="465" y="148" fill="#e8f1f2" font-size="19">subagents + live callbacks</text>
    <text x="900" y="88" fill="#e8f1f2" font-size="19">stdio-first JSON-RPC</text>
    <text x="900" y="118" fill="#e8f1f2" font-size="19">HTTP, SSE helpers</text>
    <text x="900" y="148" fill="#e8f1f2" font-size="19">Go tool servers</text>
  </g>
  <g transform="translate(95 430)" font-family="Consolas, 'Courier New', monospace" font-size="22">
    <rect width="1090" height="46" rx="12" fill="#102a2a" stroke="#2e7d78"/>
    <text x="24" y="31" fill="#9dd9d2">import tinychain/agent</text>
    <text x="370" y="31" fill="#d9b44a">tiny binaries</text>
    <text x="610" y="31" fill="#ffd300">minimal surface area</text>
    <text x="910" y="31" fill="#9dd9d2">stdlib-heavy</text>
  </g>
</svg>
